<?xml version="1.0" encoding="UTF-8" standalone="no"?>
<!-- Created with Inkscape (http://www.inkscape.org/) -->

<svg
   width="52mm"
   height="52mm"
   viewBox="0 0 52 52"
   version="1.1"
   id="svg5"
   xml:space="preserve"
   xmlns="http://www.w3.org/2000/svg"
   xmlns:svg="http://www.w3.org/2000/svg"><defs
     id="defs2" /><g
     id="layer1"
     transform="translate(-41.385513,-70.875101)"><path
       style="fill:#2b3448;fill-opacity:1;stroke:#ffffff;stroke-width:1.7;stroke-linejoin:round;paint-order:stroke fill"
       d="m 48.367239,123.3629 39.503364,0 a 2.8628085,2.8628085 127.69906 0 0 2.770343,-3.58453 l -2.019792,-7.75305 a 5.4243068,5.4243068 41.069622 0 0 -4.612383,-4.01934 l -26.519016,-3.13456 a 5.1984154,5.1984154 151.26908 0 0 -5.290556,2.9002 l -5.92413,12.25627 a 2.3237523,2.3237523 57.898525 0 0 2.09217,3.33501 z"
       id="path351" /><path
       style="fill:#2b3448;fill-opacity:1;stroke:#ffffff;stroke-width:1.7;stroke-linejoin:round;paint-order:stroke fill"
       d="m 47.586122,94.818693 -0.643287,2.825946 a 3.4029464,3.4029464 55.397155 0 0 2.846215,4.125391 l 18.541001,2.59594 a 16.180632,16.180632 175.07594 0 0 7.194868,-0.61986 l 3.215548,-1.03353 a 6.1992652,6.1992652 131.3226 0 0 4.199197,-4.776049 l 1.151839,-6.236897 a 2.8210388,2.8210388 47.755926 0 0 -3.017628,-3.32284 l -28.975241,2.510399 a 5.0774254,5.0774254 138.93618 0 0 -4.512512,3.9315 z"
       id="path353" /><path
       style="fill:#c46b44;fill-opacity:1;stroke:#ffffff;stroke-width:1.7;stroke-linejoin:round;paint-order:stroke fill"
       d="m 55.466971,85.146788 0.951198,-7.518431 a 7.4994774,7.4994774 123.49633 0 1 3.665766,-5.539139 8.2835039,8.2835039 174.8089 0 1 5.346876,-0.485766 l 6.009954,0.80199 a 6.1347681,6.1347681 38.724386 0 1 4.947754,3.967357 l 1.945245,5.300698 a 3.0173964,3.0173964 120.68183 0 1 -2.387496,4.023908 l -17.280595,2.577751 a 2.8067907,2.8067907 44.363113 0 1 -3.198702,-3.128368 z"
       id="path355" /></g></svg>
